<svg xmlns="http://www.w3.org/2000/svg" width="212.607" height="212.599" viewBox="0 0 212.607 212.599">
  <g id="组_4056" data-name="组 4056" transform="translate(-349.134 -566.681)">
    <path id="路径_8305" data-name="路径 8305" d="M528.721,597.024c-10.114-9.114-34.556,1.2-54.39,22.934-11.2,12.241-18.6,25.567-21.12,36.5a112.676,112.676,0,0,1,9.84-8.16c23.677-17.537,49.664-22.982,57.821-12.108a11.6,11.6,0,0,1,1.365,2.344C533.5,621.091,536.634,604.141,528.721,597.024Z" fill="#7367f0" fill-rule="evenodd"/>
    <path id="路径_8306" data-name="路径 8306" d="M561.71,670.29c-.974-13.524-25.827-22.819-55.3-20.692-16.616,1.178-31.24,5.744-40.673,11.925a113.829,113.829,0,0,1,12.794.842c29.326,3.546,51.91,17.418,50.244,30.875a11.557,11.557,0,0,1-.643,2.63C548.421,690.971,562.481,680.861,561.71,670.29Z" fill="#7367f0" fill-rule="evenodd"/>
    <path id="路径_8307" data-name="路径 8307" d="M452.8,779.28c13.661-.007,24.761-23.955,24.708-53.28-.008-16.533-3.563-31.335-9.106-41.112a111.105,111.105,0,0,1-1.753,12.608c-5.638,28.783-21.178,50.159-34.584,47.557a11.74,11.74,0,0,1-2.6-.822C432.954,764.66,442.12,779.295,452.8,779.28Z" fill="#7367f0" fill-rule="evenodd"/>
    <path id="路径_8308" data-name="路径 8308" d="M349.141,671.676c.474,13.55,24.968,23.741,54.495,22.686,16.648-.573,31.431-4.606,41.086-10.439a113.7,113.7,0,0,1-12.755-1.307c-29.176-4.608-51.233-19.292-49.071-32.679a11.548,11.548,0,0,1,.739-2.605C363.184,651.491,348.76,661.083,349.141,671.676Z" fill="#7367f0" fill-rule="evenodd"/>
    <path id="路径_8309" data-name="路径 8309" d="M449.1,566.735c-13.6,1.306-22.334,26.2-19.452,55.384,1.6,16.457,6.571,30.852,13.032,40.057a111.165,111.165,0,0,1,.528-12.716c2.834-29.187,16.24-51.943,29.835-50.627a11.78,11.78,0,0,1,2.666.571C470.268,579.4,459.732,565.705,449.1,566.735Z" fill="#7367f0" fill-rule="evenodd"/>
    <path id="路径_8310" data-name="路径 8310" d="M525.338,754.4c10.281-8.928,2.758-34.209-16.725-56.254-10.97-12.443-23.461-21.265-34.117-25.005a111.939,111.939,0,0,1,7.04,10.636c14.84,25.355,17.314,51.6,5.5,58.4a11.763,11.763,0,0,1-2.5,1.078C500.7,756.355,517.308,761.387,525.338,754.4Z" fill="#7367f0" fill-rule="evenodd"/>
    <path id="路径_8311" data-name="路径 8311" d="M378.937,749.853c10.114,9.114,34.557-1.2,54.39-22.934,11.2-12.241,18.6-25.567,21.121-36.5a112.826,112.826,0,0,1-9.84,8.16c-23.678,17.536-49.664,22.982-57.821,12.107a11.569,11.569,0,0,1-1.366-2.343C374.159,725.786,371.024,742.736,378.937,749.853Z" fill="#7367f0" fill-rule="evenodd"/>
    <path id="路径_8312" data-name="路径 8312" d="M378.892,597.33c-9.183,10.038,1.208,34.3,23.107,53.982,12.333,11.115,25.76,18.459,36.778,20.963a112.147,112.147,0,0,1-8.221-9.767c-17.669-23.5-23.155-49.292-12.2-57.388a11.7,11.7,0,0,1,2.361-1.355C403.14,592.587,386.063,589.476,378.892,597.33Z" fill="#7367f0" fill-rule="evenodd"/>
  </g>
</svg>
